# Blender v2.82 (sub 7) OBJ File: 'low_poly_stones.blend'
# www.blender.org
mtllib stone_6.mtl
o stone_6_Cube.031
v -0.432931 0.220900 -0.460268
v 0.710122 0.198722 0.125098
v 0.609602 0.166725 -0.184829
v -0.121550 0.159661 0.254722
v -0.662790 0.220900 -0.361070
v -0.703162 0.000000 -0.490664
v -0.128201 0.000000 0.305632
v 0.638781 0.000000 -0.225284
v 0.758660 0.000000 0.146628
v -0.458158 0.000000 -0.556026
v -0.928877 0.000000 0.290529
v -0.852609 0.109270 0.266785
v -0.875364 0.158786 -0.050055
v -0.985692 0.000000 -0.015819
v -0.516145 0.118294 0.375650
v -0.527617 0.000000 0.458256
v 0.539290 0.184274 0.544516
v 0.289656 0.000000 0.623450
v 0.085065 0.232824 -0.303784
v 0.086701 0.000000 -0.348009
v -0.390701 0.326646 -0.363155
v 0.629645 0.357141 0.124243
v 0.568161 0.326646 -0.128440
v -0.123788 0.272283 0.219654
v -0.600000 0.326646 -0.285289
v -0.777025 0.219255 0.192884
v -0.741092 0.271507 -0.021900
v -0.512552 0.208710 0.336061
v 0.445156 0.366923 0.459740
v 0.088057 0.316050 -0.252518
v 0.296293 0.456739 0.040393
v -0.195933 0.401985 0.036814
v -0.506666 0.349708 0.108023
v -0.507409 0.385486 -0.110616
v 0.587570 0.000000 0.607622
v -0.636402 0.000000 0.888823
v -0.610679 0.083043 0.859002
v -0.394015 0.092541 0.919272
v -0.372444 0.000000 0.952405
v -0.659985 0.083043 0.748784
v -0.678103 0.000000 0.746637
v -0.398826 0.092541 0.720790
v -0.353944 0.000000 0.701555
v -0.507407 0.087792 0.561012
v -0.511299 0.000000 0.539198
v -0.543341 0.194122 0.770179
v -0.443242 0.178270 0.803822
v -0.568741 0.203123 0.713503
v -0.427491 0.183925 0.690036
v -0.490389 0.198909 0.611333
v -0.240308 0.000000 0.649960
v -0.219155 0.066409 0.627830
v 0.003273 0.092541 0.641021
v 0.029272 0.000000 0.659722
v -0.283487 0.066409 0.562986
v -0.301676 0.000000 0.563737
v -0.031463 0.119298 0.536461
v 0.011885 0.000000 0.496796
v -0.161346 0.114549 0.446815
v -0.166509 0.000000 0.411222
v 0.629791 0.000000 -0.503077
v 0.600944 0.061896 -0.499957
v 0.465980 0.071977 -0.719475
v 0.469094 0.000000 -0.747678
v 0.571603 0.061896 -0.373182
v 0.577695 0.000000 -0.365322
v 0.346290 0.071977 -0.557667
v 0.308126 0.000000 -0.573332
v 0.333291 0.066936 -0.344512
v 0.330948 0.000000 -0.334169
v 0.558301 0.119019 -0.487534
v 0.452253 0.130179 -0.672120
v 0.536114 0.134749 -0.450693
v 0.391506 0.140153 -0.550937
v 0.393423 0.128421 -0.406533
v 0.192640 0.000000 -0.619405
v 0.163798 0.066409 -0.618587
v 0.004702 0.092541 -0.794411
v -0.003833 0.000000 -0.827834
v 0.174028 0.066409 -0.521959
v 0.188111 0.000000 -0.508953
v -0.030556 0.119298 -0.690074
v -0.086327 0.000000 -0.692661
v 0.014297 0.114549 -0.525943
v -0.002701 0.000000 -0.495395
v 1.021074 0.000000 -0.185302
v 0.994591 0.066409 -0.158838
v 0.807140 0.070482 -0.165841
v 0.770405 0.000000 -0.202347
v 1.040325 0.058982 -0.008005
v 1.069425 0.000000 0.024580
v 0.808467 0.081196 -0.046952
v 0.768815 0.000000 -0.002641
v 0.947427 0.076447 0.106793
v 0.955690 0.000000 0.141634
vt 0.949600 0.542649
vt 0.925400 0.542649
vt 0.925400 0.591849
vt 0.949600 0.591849
vt 0.649600 0.916849
vt 0.649600 0.892649
vt 0.600400 0.892649
vt 0.600400 0.916849
vt 0.799600 0.542649
vt 0.750400 0.542649
vt 0.750400 0.641849
vt 0.799600 0.641849
vt 0.849600 0.692649
vt 0.800400 0.692649
vt 0.800400 0.741849
vt 0.849600 0.741849
vt 0.849600 0.691849
vt 0.849600 0.642649
vt 0.750400 0.642649
vt 0.750400 0.691849
vt 0.824600 0.542649
vt 0.800400 0.542649
vt 0.800400 0.641849
vt 0.824600 0.641849
vt 0.599600 0.916849
vt 0.599600 0.892649
vt 0.550400 0.892649
vt 0.550400 0.916849
vt 0.924600 0.642649
vt 0.900400 0.642649
vt 0.900400 0.691849
vt 0.924600 0.691849
vt 0.899600 0.791849
vt 0.875801 0.791849
vt 0.899600 0.743050
vt 0.749600 0.841849
vt 0.749600 0.792649
vt 0.650400 0.792649
vt 0.650400 0.841849
vt 0.924600 0.591849
vt 0.924600 0.542649
vt 0.900400 0.542649
vt 0.900400 0.591849
vt 0.850400 0.866849
vt 0.899600 0.866849
vt 0.899600 0.842649
vt 0.850400 0.842649
vt 0.849600 0.641849
vt 0.849600 0.542649
vt 0.825400 0.542649
vt 0.825400 0.641849
vt 0.800400 0.891849
vt 0.849600 0.891849
vt 0.849600 0.867649
vt 0.800400 0.867649
vt 0.874600 0.641849
vt 0.874600 0.542649
vt 0.850400 0.542649
vt 0.850400 0.641849
vt 0.550400 0.866849
vt 0.649600 0.866849
vt 0.649600 0.842649
vt 0.550400 0.842649
vt 0.899600 0.841849
vt 0.899600 0.792649
vt 0.875400 0.792649
vt 0.875400 0.841849
vt 0.600400 0.891849
vt 0.649600 0.891849
vt 0.649600 0.867649
vt 0.600400 0.867649
vt 0.899600 0.641849
vt 0.899600 0.592649
vt 0.875400 0.592649
vt 0.875400 0.641849
vt 0.650400 0.916849
vt 0.699600 0.916849
vt 0.699600 0.892649
vt 0.650400 0.892649
vt 0.750801 0.841849
vt 0.799600 0.793050
vt 0.799600 0.841849
vt 0.700801 0.891849
vt 0.749600 0.843050
vt 0.749600 0.891849
vt 0.699600 0.843050
vt 0.650801 0.891849
vt 0.699600 0.891849
vt 0.749600 0.743050
vt 0.749600 0.791849
vt 0.650801 0.791849
vt 0.700400 0.891448
vt 0.749199 0.842649
vt 0.700400 0.842649
vt 0.650400 0.742649
vt 0.749199 0.742649
vt 0.650400 0.791448
vt 0.550801 0.841849
vt 0.649600 0.841849
vt 0.649600 0.743050
vt 0.699199 0.842649
vt 0.650400 0.891448
vt 0.650400 0.842649
vt 0.875400 0.742649
vt 0.875400 0.791448
vt 0.899199 0.742649
vt 0.849600 0.841849
vt 0.800801 0.841849
vt 0.849600 0.793050
vt 0.800400 0.841448
vt 0.800400 0.792649
vt 0.849199 0.792649
vt 0.850801 0.891849
vt 0.899600 0.868050
vt 0.899600 0.891849
vt 0.899600 0.692649
vt 0.850400 0.692649
vt 0.850400 0.741849
vt 0.899600 0.741849
vt 0.750400 0.841448
vt 0.750400 0.792649
vt 0.799199 0.792649
vt 0.874600 0.742649
vt 0.850400 0.742649
vt 0.850400 0.841849
vt 0.874600 0.841849
vt 0.550400 0.742649
vt 0.550400 0.841448
vt 0.649199 0.742649
vt 0.749600 0.583154
vt 0.741184 0.650643
vt 0.749600 0.716077
vt 0.684991 0.741849
vt 0.586360 0.738284
vt 0.566030 0.705722
vt 0.602942 0.648663
vt 0.550400 0.609409
vt 0.559395 0.559220
vt 0.615046 0.542649
vt 0.722808 0.558129
vt 0.849600 0.866849
vt 0.849600 0.842649
vt 0.800400 0.842649
vt 0.800400 0.866849
vt 0.899600 0.591849
vt 0.899600 0.542649
vt 0.875400 0.542649
vt 0.875400 0.591849
vt 0.550400 0.891849
vt 0.599600 0.891849
vt 0.599600 0.867649
vt 0.550400 0.867649
vt 0.949600 0.892649
vt 0.925400 0.892649
vt 0.925400 0.916849
vt 0.949600 0.916849
vt 0.924600 0.917649
vt 0.900400 0.917649
vt 0.900400 0.941849
vt 0.924600 0.941849
vt 0.949600 0.867649
vt 0.925400 0.867649
vt 0.925400 0.891849
vt 0.949600 0.891849
vt 0.899600 0.917649
vt 0.875400 0.917649
vt 0.875400 0.941849
vt 0.899600 0.941849
vt 0.874600 0.917649
vt 0.850400 0.917649
vt 0.850400 0.941849
vt 0.874600 0.941849
vt 0.949600 0.842649
vt 0.925400 0.842649
vt 0.925400 0.866849
vt 0.949600 0.866849
vt 0.949600 0.767649
vt 0.925400 0.767649
vt 0.925400 0.791849
vt 0.949600 0.791849
vt 0.825801 0.941849
vt 0.849600 0.941849
vt 0.849600 0.918050
vt 0.774600 0.917649
vt 0.750400 0.917649
vt 0.750400 0.941849
vt 0.774600 0.941849
vt 0.924600 0.592649
vt 0.900400 0.592649
vt 0.900400 0.641849
vt 0.924600 0.641849
vt 0.949600 0.742649
vt 0.925400 0.742649
vt 0.925400 0.766849
vt 0.949600 0.766849
vt 0.949600 0.717649
vt 0.925400 0.717649
vt 0.925400 0.741849
vt 0.949600 0.741849
vt 0.749600 0.917649
vt 0.725400 0.917649
vt 0.725400 0.941849
vt 0.749600 0.941849
vt 0.949600 0.692649
vt 0.925400 0.692649
vt 0.925400 0.716849
vt 0.949600 0.716849
vt 0.925801 0.816849
vt 0.949600 0.816849
vt 0.949600 0.793050
vt 0.799600 0.918050
vt 0.775801 0.941849
vt 0.799600 0.941849
vt 0.800801 0.941849
vt 0.824600 0.918050
vt 0.824600 0.941849
vt 0.749600 0.916849
vt 0.749600 0.892649
vt 0.700400 0.892649
vt 0.700400 0.916849
vt 0.924600 0.741849
vt 0.924600 0.692649
vt 0.900400 0.692649
vt 0.900400 0.741849
vt 0.750400 0.916849
vt 0.799600 0.916849
vt 0.799600 0.892649
vt 0.750400 0.892649
vt 0.699600 0.917649
vt 0.675400 0.917649
vt 0.675400 0.941849
vt 0.699600 0.941849
vt 0.924600 0.841849
vt 0.924600 0.792649
vt 0.900400 0.792649
vt 0.900400 0.841849
vt 0.949600 0.642649
vt 0.925400 0.642649
vt 0.925400 0.666849
vt 0.949600 0.666849
vt 0.599600 0.917649
vt 0.575400 0.917649
vt 0.575400 0.941849
vt 0.599600 0.941849
vt 0.899600 0.916849
vt 0.899600 0.892649
vt 0.850400 0.892649
vt 0.850400 0.916849
vt 0.949600 0.917649
vt 0.925400 0.917649
vt 0.925400 0.941849
vt 0.949600 0.941849
vt 0.924600 0.892649
vt 0.900400 0.892649
vt 0.900400 0.916849
vt 0.924600 0.916849
vt 0.925801 0.841849
vt 0.949600 0.841849
vt 0.949600 0.818050
vt 0.574600 0.917649
vt 0.550400 0.917649
vt 0.550400 0.941849
vt 0.574600 0.941849
vt 0.924600 0.842649
vt 0.900400 0.842649
vt 0.900400 0.891849
vt 0.924600 0.891849
vt 0.624600 0.917649
vt 0.600400 0.917649
vt 0.600400 0.941849
vt 0.624600 0.941849
vt 0.949600 0.592649
vt 0.925400 0.592649
vt 0.925400 0.616849
vt 0.949600 0.616849
vt 0.649600 0.917649
vt 0.625400 0.917649
vt 0.625400 0.941849
vt 0.649600 0.941849
vt 0.949600 0.617649
vt 0.925400 0.617649
vt 0.925400 0.641849
vt 0.949600 0.641849
vt 0.849199 0.917649
vt 0.825400 0.917649
vt 0.825400 0.941448
vt 0.925400 0.841448
vt 0.949199 0.817649
vt 0.925400 0.817649
vt 0.824199 0.917649
vt 0.800400 0.941448
vt 0.800400 0.917649
vt 0.849600 0.916849
vt 0.849600 0.892649
vt 0.800400 0.892649
vt 0.800400 0.916849
vt 0.674600 0.917649
vt 0.650400 0.917649
vt 0.650400 0.941849
vt 0.674600 0.941849
vt 0.949600 0.667649
vt 0.925400 0.667649
vt 0.925400 0.691849
vt 0.949600 0.691849
vt 0.924600 0.791849
vt 0.924600 0.742649
vt 0.900400 0.742649
vt 0.900400 0.791849
vt 0.724600 0.917649
vt 0.700400 0.917649
vt 0.700400 0.941849
vt 0.724600 0.941849
vt 0.925400 0.792649
vt 0.949199 0.792649
vt 0.925400 0.816448
vt 0.899199 0.867649
vt 0.850400 0.867649
vt 0.850400 0.891448
vt 0.775400 0.941448
vt 0.799199 0.917649
vt 0.775400 0.917649
vt 0.799600 0.842649
vt 0.799600 0.881329
vt 0.782480 0.891849
vt 0.750400 0.875667
vt 0.766524 0.848456
vt 0.849600 0.782361
vt 0.832480 0.791849
vt 0.800400 0.772776
vt 0.816524 0.746075
vt 0.849600 0.742649
vt 0.783305 0.692649
vt 0.799600 0.703327
vt 0.799600 0.741849
vt 0.769533 0.740716
vt 0.750400 0.712598
vt 0.799600 0.781397
vt 0.782480 0.791849
vt 0.750400 0.775478
vt 0.766524 0.748301
vt 0.799600 0.742649
vt 0.858581 0.689687
vt 0.850400 0.659594
vt 0.868849 0.642649
vt 0.899600 0.663160
vt 0.899600 0.691849
vn -0.3098 0.4980 0.8100
vn 0.9267 0.2131 -0.3095
vn -0.7807 0.4249 -0.4582
vn -0.2892 0.4687 -0.8347
vn -0.4118 0.5740 0.7078
vn 0.2265 0.2186 -0.9492
vn -0.7963 0.5864 0.1483
vn 0.2797 0.4008 0.8724
vn 0.0500 0.3353 0.9408
vn 0.3101 0.2655 -0.9129
vn 0.7848 0.4953 0.3725
vn -0.7110 0.6937 0.1152
vn 0.2350 0.4243 -0.8745
vn 0.2320 0.3343 0.9135
vn 0.2117 0.5717 -0.7927
vn -0.4038 0.2278 0.8860
vn -0.3194 0.5594 0.7649
vn -0.2719 0.6864 -0.6745
vn -0.6536 0.7119 -0.2571
vn 0.8741 0.3862 -0.2946
vn 0.2580 0.9594 0.1139
vn 0.0185 0.8502 0.5262
vn -0.0042 0.8148 0.5797
vn -0.3787 0.6778 0.6302
vn 0.3248 0.9263 -0.1908
vn 0.1357 0.8520 -0.5057
vn -0.1086 0.9852 -0.1327
vn -0.4553 0.8884 -0.0579
vn -0.1279 0.9787 0.1606
vn -0.3892 0.9079 0.1558
vn -0.2409 0.8283 0.5059
vn -0.3868 0.9099 0.1502
vn -0.0005 0.9739 -0.2271
vn 0.1080 0.8640 -0.4918
vn 0.8871 0.3015 0.3495
vn -0.1089 0.9634 0.2450
vn 0.0000 -1.0000 0.0000
vn -0.2415 0.3326 0.9116
vn -0.7654 0.1851 -0.6163
vn 0.9401 0.3397 0.0286
vn 0.8097 0.1024 -0.5778
vn 0.7322 0.3050 -0.6090
vn -0.8998 0.2916 0.3245
vn -0.7249 0.3769 -0.5766
vn -0.1852 0.7158 0.6733
vn -0.6805 0.6492 0.3396
vn 0.9023 0.4293 0.0394
vn 0.1459 0.9867 0.0712
vn 0.1401 0.9871 0.0769
vn -0.0582 0.2467 0.9673
vn -0.7240 0.2194 -0.6540
vn 0.9351 0.3210 -0.1501
vn 0.4609 0.3392 -0.8201
vn -0.7282 0.3201 0.6060
vn -0.1285 0.9497 0.2857
vn -0.1739 0.9641 0.2009
vn -0.1950 0.9615 0.1934
vn 0.8048 0.3105 -0.5059
vn 0.1226 0.1423 0.9822
vn -0.7170 0.3570 -0.5987
vn -0.7749 0.6320 0.0056
vn -0.9600 0.2790 0.0240
vn 0.9201 0.2705 0.2833
vn 0.1313 0.7025 0.6995
vn 0.7232 0.5618 -0.4018
vn 0.7945 0.5752 0.1949
vn -0.7644 0.4051 -0.5016
vn -0.0191 0.9965 0.0812
vn 0.1548 0.9848 -0.0789
vn 0.7217 0.2326 -0.6520
vn 0.0585 0.2327 0.9708
vn -0.8325 0.3285 -0.4460
vn -0.8926 0.3162 0.3215
vn 0.9519 0.3052 -0.0262
vn 0.3069 0.9417 -0.1378
vn 0.2788 0.9591 -0.0484
vn 0.2891 0.9568 -0.0306
vn 0.0537 0.4140 -0.9087
vn 0.6765 0.4692 0.5676
vn -0.8933 0.4491 -0.0158
vn -0.5986 0.4514 0.6617
vn 0.8947 0.3856 -0.2254
vn 0.0250 0.9956 -0.0900
vn 0.0634 0.9976 -0.0264
vn 0.1781 0.9840 -0.0056
usemtl low_poly_stones_color_palette
s off
f 16/1/1 15/2/1 12/3/1 11/4/1
f 8/5/2 3/6/2 2/7/2 9/8/2
f 14/9/3 13/10/3 5/11/3 6/12/3
f 6/13/4 5/14/4 1/15/4 10/16/4
f 18/17/5 17/18/5 4/19/5 7/20/5
f 20/21/6 19/22/6 3/23/6 8/24/6
f 11/25/7 12/26/7 13/27/7 14/28/7
f 7/29/8 4/30/8 15/31/8 16/32/8
f 35/33/9 17/34/9 18/35/9
f 10/36/10 1/37/10 19/38/10 20/39/10
f 17/40/11 2/41/11 22/42/11 29/43/11
f 13/44/12 12/45/12 26/46/12 27/47/12
f 3/48/13 19/49/13 30/50/13 23/51/13
f 15/52/14 4/53/14 24/54/14 28/55/14
f 19/56/15 1/57/15 21/58/15 30/59/15
f 4/60/16 17/61/16 29/62/16 24/63/16
f 12/64/17 15/65/17 28/66/17 26/67/17
f 1/68/18 5/69/18 25/70/18 21/71/18
f 5/72/19 13/73/19 27/74/19 25/75/19
f 2/76/20 3/77/20 23/78/20 22/79/20
f 31/80/21 29/81/21 22/82/21
f 28/83/22 24/84/22 33/85/22
f 33/86/23 24/87/23 32/88/23
f 32/89/24 24/90/24 29/91/24
f 31/92/25 22/93/25 23/94/25
f 30/95/26 21/96/26 31/97/26
f 21/98/27 32/99/27 31/100/27
f 25/101/28 27/102/28 34/103/28
f 33/104/29 32/105/29 34/106/29
f 27/107/30 26/108/30 33/109/30
f 26/110/31 28/111/31 33/112/31
f 27/113/32 33/114/32 34/115/32
f 21/116/33 25/117/33 34/118/33 32/119/33
f 30/120/34 31/121/34 23/122/34
f 9/123/35 2/124/35 17/125/35 35/126/35
f 31/127/36 32/128/36 29/129/36
f 10/130/37 20/131/37 8/132/37 9/133/37 35/134/37 18/135/37 7/136/37 16/137/37 11/138/37 14/139/37 6/140/37
f 39/141/38 38/142/38 37/143/38 36/144/38
f 45/145/39 41/146/39 40/147/39 44/148/39
f 39/149/40 43/150/40 42/151/40 38/152/40
f 44/153/41 50/154/41 49/155/41 42/156/41
f 43/157/42 45/158/42 44/159/42 42/160/42
f 37/161/43 40/162/43 41/163/43 36/164/43
f 40/165/44 48/166/44 50/167/44 44/168/44
f 38/169/45 47/170/45 46/171/45 37/172/45
f 37/173/46 46/174/46 48/175/46 40/176/46
f 42/177/47 49/178/47 47/179/47 38/180/47
f 49/181/48 50/182/48 48/183/48
f 47/184/49 49/185/49 48/186/49 46/187/49
f 54/188/50 53/189/50 52/190/50 51/191/50
f 60/192/51 56/193/51 55/194/51 59/195/51
f 54/196/52 58/197/52 57/198/52 53/199/52
f 58/200/53 60/201/53 59/202/53 57/203/53
f 52/204/54 55/205/54 56/206/54 51/207/54
f 53/208/55 57/209/55 52/210/55
f 52/211/56 57/212/56 59/213/56
f 52/214/57 59/215/57 55/216/57
f 64/217/58 63/218/58 62/219/58 61/220/58
f 70/221/59 66/222/59 65/223/59 69/224/59
f 64/225/60 68/226/60 67/227/60 63/228/60
f 69/229/61 75/230/61 74/231/61 67/232/61
f 68/233/62 70/234/62 69/235/62 67/236/62
f 62/237/63 65/238/63 66/239/63 61/240/63
f 65/241/64 73/242/64 75/243/64 69/244/64
f 63/245/65 72/246/65 71/247/65 62/248/65
f 62/249/66 71/250/66 73/251/66 65/252/66
f 67/253/67 74/254/67 72/255/67 63/256/67
f 74/257/68 75/258/68 73/259/68
f 72/260/69 74/261/69 73/262/69 71/263/69
f 79/264/70 78/265/70 77/266/70 76/267/70
f 85/268/71 81/269/71 80/270/71 84/271/71
f 79/272/72 83/273/72 82/274/72 78/275/72
f 83/276/73 85/277/73 84/278/73 82/279/73
f 77/280/74 80/281/74 81/282/74 76/283/74
f 78/284/75 82/285/75 77/286/75
f 77/287/76 82/288/76 84/289/76
f 77/290/77 84/291/77 80/292/77
f 89/293/78 88/294/78 87/295/78 86/296/78
f 95/297/79 91/298/79 90/299/79 94/300/79
f 89/301/80 93/302/80 92/303/80 88/304/80
f 93/305/81 95/306/81 94/307/81 92/308/81
f 87/309/82 90/310/82 91/311/82 86/312/82
f 88/313/83 92/314/83 87/315/83
f 87/316/84 92/317/84 94/318/84
f 87/319/85 94/320/85 90/321/85
f 39/322/37 36/323/37 41/324/37 45/325/37 43/326/37
f 51/327/37 56/328/37 60/329/37 58/330/37 54/331/37
f 61/332/37 66/333/37 70/334/37 68/335/37 64/336/37
f 76/337/37 81/338/37 85/339/37 83/340/37 79/341/37
f 86/342/37 91/343/37 95/344/37 93/345/37 89/346/37
