# Blender v2.82 (sub 7) OBJ File: 'low_poly_stones.blend'
# www.blender.org
mtllib stone_7.mtl
o stone_7_Cube.032
v -0.047562 0.215968 0.676462
v 0.572229 0.453551 0.246292
v 0.452843 0.254531 -0.322375
v -0.488654 0.390544 0.489952
v -0.258020 0.784441 -0.477633
v 0.409783 0.785777 0.114755
v 0.677012 -0.002220 0.277440
v 0.091682 0.694451 0.452076
v 0.496005 -0.002220 -0.337879
v -0.860562 -0.002220 -0.124435
v 0.017229 -0.002220 0.725568
v 0.345780 0.682710 -0.329624
v -0.804309 0.511545 -0.118705
v -0.500876 0.732746 0.402377
v -0.627802 0.697669 -0.129455
v -0.256967 1.369899 -0.268658
v -0.014206 1.272347 0.073821
v 0.116541 1.306499 -0.173057
v -0.238530 1.432452 0.101374
v -0.580922 1.002610 -0.089722
v -0.393624 1.139336 0.240982
v 0.130859 1.126734 -0.183486
v 0.044552 1.096704 0.176151
v -0.411453 1.396958 -0.086258
v -0.282924 1.046965 -0.344950
v -0.101969 0.550597 -0.593558
v 0.169607 0.322402 -0.488586
v 0.200988 -0.002220 -0.512433
v -0.724813 0.479307 -0.497081
v -0.385959 0.178789 -0.853928
v -0.408226 -0.002220 -0.890459
v 0.164040 -0.002220 -0.795180
v -0.827863 -0.002220 -0.465221
v 0.128016 0.193996 -0.777885
v -0.704246 0.139068 0.163474
v -0.791927 -0.002220 0.130422
v -0.280209 0.198892 1.100428
v -0.879821 0.397226 0.896944
v -0.947502 -0.002220 0.996892
v -1.181105 -0.002220 0.343805
v -0.260291 -0.002220 1.171030
v -1.096970 0.196050 0.363958
v -0.726116 0.480487 0.723860
vt 0.953832 0.634480
vt 0.904633 0.634480
vt 0.904633 0.683679
vt 0.953832 0.683679
vt 0.928832 0.834480
vt 0.904633 0.834480
vt 0.904633 0.883679
vt 0.928832 0.883679
vt 0.853832 0.683679
vt 0.853832 0.634480
vt 0.754633 0.634480
vt 0.754633 0.683679
vt 0.803832 0.534480
vt 0.754633 0.534480
vt 0.754633 0.633679
vt 0.803832 0.633679
vt 0.928832 0.784880
vt 0.928832 0.833679
vt 0.905033 0.833679
vt 0.853832 0.834480
vt 0.804633 0.834480
vt 0.804633 0.883679
vt 0.853832 0.883679
vt 0.578447 0.734480
vt 0.653832 0.741529
vt 0.653832 0.815204
vt 0.601379 0.833679
vt 0.554633 0.762570
vt 0.758657 0.733679
vt 0.754633 0.713530
vt 0.792797 0.693349
vt 0.853832 0.684480
vt 0.853832 0.722125
vt 0.853832 0.633679
vt 0.853832 0.534480
vt 0.804633 0.534480
vt 0.804633 0.633679
vt 0.753832 0.834480
vt 0.704633 0.834480
vt 0.704633 0.883679
vt 0.753832 0.883679
vt 0.903832 0.908679
vt 0.903832 0.884480
vt 0.854633 0.884480
vt 0.854633 0.908679
vt 0.653832 0.884480
vt 0.604633 0.884480
vt 0.604633 0.933679
vt 0.653832 0.933679
vt 0.603832 0.834480
vt 0.554633 0.834480
vt 0.554633 0.883679
vt 0.603832 0.883679
vt 0.928832 0.783679
vt 0.928832 0.734480
vt 0.904633 0.734480
vt 0.904633 0.783679
vt 0.703832 0.834480
vt 0.654633 0.834480
vt 0.654633 0.883679
vt 0.703832 0.883679
vt 0.804633 0.908679
vt 0.853832 0.908679
vt 0.853832 0.884480
vt 0.804633 0.884480
vt 0.928832 0.733679
vt 0.928832 0.684480
vt 0.904633 0.684480
vt 0.904633 0.733679
vt 0.903832 0.684480
vt 0.854633 0.684480
vt 0.854633 0.733679
vt 0.903832 0.733679
vt 0.705033 0.933679
vt 0.753832 0.933679
vt 0.753832 0.884880
vt 0.803832 0.834480
vt 0.754633 0.834480
vt 0.754633 0.883679
vt 0.803832 0.883679
vt 0.903832 0.734480
vt 0.854633 0.734480
vt 0.854633 0.783679
vt 0.903832 0.783679
vt 0.903832 0.784480
vt 0.854633 0.784480
vt 0.854633 0.833679
vt 0.903832 0.833679
vt 0.753832 0.783679
vt 0.753832 0.734480
vt 0.654633 0.734480
vt 0.654633 0.783679
vt 0.605033 0.883679
vt 0.653832 0.834880
vt 0.653832 0.883679
vt 0.928832 0.633679
vt 0.928832 0.534480
vt 0.904633 0.534480
vt 0.904633 0.633679
vt 0.903832 0.834480
vt 0.854633 0.834480
vt 0.854633 0.883679
vt 0.903832 0.883679
vt 0.803832 0.908679
vt 0.803832 0.884480
vt 0.754633 0.884480
vt 0.754633 0.908679
vt 0.753832 0.833679
vt 0.655033 0.833679
vt 0.753832 0.784880
vt 0.753431 0.884480
vt 0.704633 0.884480
vt 0.704633 0.933279
vt 0.903832 0.534480
vt 0.854633 0.534480
vt 0.854633 0.633679
vt 0.903832 0.633679
vt 0.703832 0.884480
vt 0.654633 0.884480
vt 0.654633 0.933679
vt 0.703832 0.933679
vt 0.853832 0.833679
vt 0.853832 0.784480
vt 0.754633 0.784480
vt 0.754633 0.833679
vt 0.953832 0.534480
vt 0.929633 0.534480
vt 0.929633 0.583679
vt 0.953832 0.583679
vt 0.654633 0.784480
vt 0.753431 0.784480
vt 0.654633 0.833279
vt 0.604633 0.883279
vt 0.604633 0.834480
vt 0.653431 0.834480
vt 0.603832 0.884480
vt 0.554633 0.884480
vt 0.554633 0.933679
vt 0.603832 0.933679
vt 0.853832 0.783679
vt 0.853832 0.734480
vt 0.754633 0.734480
vt 0.754633 0.783679
vt 0.903832 0.634480
vt 0.854633 0.634480
vt 0.854633 0.683679
vt 0.903832 0.683679
vt 0.904633 0.784480
vt 0.904633 0.833279
vt 0.928431 0.784480
vt 0.641350 0.550911
vt 0.682574 0.541827
vt 0.753832 0.570478
vt 0.737472 0.647262
vt 0.753832 0.696864
vt 0.678829 0.733679
vt 0.599621 0.706200
vt 0.613878 0.664339
vt 0.584911 0.652025
vt 0.556909 0.626765
vt 0.554633 0.568487
vt 0.612592 0.534480
vn -0.9755 0.1520 -0.1590
vn 0.9763 0.1394 -0.1653
vn 0.9436 0.1900 -0.2713
vn 0.5216 0.2291 0.8219
vn 0.6769 0.6318 -0.3777
vn 0.9258 0.2822 -0.2517
vn -0.8752 0.2567 0.4101
vn 0.4310 0.3010 -0.8507
vn 0.5133 0.3573 0.7803
vn -0.1338 0.3702 0.9193
vn 0.8189 0.3043 0.4865
vn 0.3481 0.9372 0.0202
vn -0.6763 0.2609 -0.6889
vn 0.8958 0.2746 0.3496
vn -0.7950 0.4548 0.4014
vn 0.3037 0.1551 -0.9400
vn 0.2465 0.4040 0.8809
vn 0.7879 0.6148 -0.0340
vn 0.5494 0.5155 0.6576
vn 0.2710 0.4315 -0.8604
vn -0.6765 0.2380 -0.6970
vn 0.0500 0.4721 0.8801
vn -0.6850 0.1346 -0.7160
vn -0.1300 0.9853 -0.1113
vn -0.6101 0.2203 -0.7611
vn 0.5145 0.1234 -0.8485
vn 0.1522 0.1451 -0.9777
vn -0.1883 0.6558 -0.7311
vn 0.1109 0.5119 -0.8519
vn -0.2297 0.2827 0.9313
vn -0.8987 0.1736 0.4027
vn -0.9139 0.2723 0.3011
vn -0.4196 0.3439 -0.8400
vn -0.5502 0.8302 -0.0892
vn 0.3639 0.9314 0.0113
vn -0.1613 0.8400 -0.5181
vn 0.2844 0.8983 0.3350
vn -0.9248 0.2494 0.2872
vn -0.0228 0.9859 -0.1655
vn 0.0000 -1.0000 -0.0000
usemtl low_poly_stones_color_palette
s off
f 10/1/1 13/2/1 29/3/1 33/4/1
f 27/5/2 28/6/2 32/7/2 34/8/2
f 9/9/3 3/10/3 2/11/3 7/12/3
f 7/13/4 2/14/4 1/15/4 11/16/4
f 26/17/5 27/18/5 34/19/5
f 2/20/6 3/21/6 12/22/6 6/23/6
f 13/24/7 35/25/7 4/26/7 14/27/7 15/28/7
f 3/29/8 27/30/8 26/31/8 5/32/8 12/33/8
f 1/34/9 2/35/9 6/36/9 8/37/9
f 4/38/10 1/39/10 8/40/10 14/41/10
f 11/42/11 1/43/11 37/44/11 41/45/11
f 19/46/12 17/47/12 18/48/12 16/49/12
f 25/50/13 20/51/13 24/52/13 16/53/13
f 23/54/14 22/55/14 18/56/14 17/57/14
f 20/58/15 21/59/15 19/60/15 24/61/15
f 22/62/16 25/63/16 16/64/16 18/65/16
f 21/66/17 23/67/17 17/68/17 19/69/17
f 6/70/18 12/71/18 22/72/18 23/73/18
f 8/74/19 6/75/19 23/76/19
f 12/77/20 5/78/20 25/79/20 22/80/20
f 5/81/21 15/82/21 20/83/21 25/84/21
f 14/85/22 8/86/22 23/87/22 21/88/22
f 33/89/23 29/90/23 30/91/23 31/92/23
f 13/93/24 26/94/24 29/95/24
f 26/96/25 13/97/25 15/98/25 5/99/25
f 28/100/26 27/101/26 3/102/26 9/103/26
f 31/104/27 30/105/27 34/106/27 32/107/27
f 30/108/28 29/109/28 26/110/28
f 26/111/29 34/112/29 30/113/29
f 41/114/30 37/115/30 38/116/30 39/117/30
f 36/118/31 35/119/31 13/120/31 10/121/31
f 39/122/32 38/123/32 42/124/32 40/125/32
f 35/126/33 36/127/33 40/128/33 42/129/33
f 43/130/34 42/131/34 38/132/34
f 1/133/35 4/134/35 43/135/35
f 4/136/36 35/137/36 42/138/36 43/139/36
f 37/140/37 1/141/37 43/142/37 38/143/37
f 15/144/38 14/145/38 21/146/38 20/147/38
f 24/148/39 19/149/39 16/150/39
f 28/151/40 9/152/40 7/153/40 11/154/40 41/155/40 39/156/40 40/157/40 36/158/40 10/159/40 33/160/40 31/161/40 32/162/40
